<svg width="68" height="56" viewBox="0 0 68 56" fill="none" xmlns="http://www.w3.org/2000/svg">
<path d="M1.85986 25V0.999999H9.96924C11.8521 0.999999 13.3911 1.33984 14.5864 2.01953C15.7896 2.69141 16.6802 3.60156 17.2583 4.75C17.8364 5.89844 18.1255 7.17969 18.1255 8.59375C18.1255 10.0078 17.8364 11.293 17.2583 12.4492C16.688 13.6055 15.8052 14.5273 14.6099 15.2148C13.4146 15.8945 11.8833 16.2344 10.0161 16.2344H4.20361V13.6562H9.92236C11.2114 13.6562 12.2466 13.4336 13.0278 12.9883C13.8091 12.543 14.3755 11.9414 14.7271 11.1836C15.0864 10.418 15.2661 9.55469 15.2661 8.59375C15.2661 7.63281 15.0864 6.77344 14.7271 6.01562C14.3755 5.25781 13.8052 4.66406 13.0161 4.23437C12.2271 3.79687 11.1802 3.57812 9.87549 3.57812H4.76611V25H1.85986ZM43.0571 13C43.0571 15.5312 42.6001 17.7187 41.686 19.5625C40.772 21.4062 39.5181 22.8281 37.9243 23.8281C36.3306 24.8281 34.5103 25.3281 32.4634 25.3281C30.4165 25.3281 28.5962 24.8281 27.0024 23.8281C25.4087 22.8281 24.1548 21.4062 23.2407 19.5625C22.3267 17.7187 21.8696 15.5312 21.8696 13C21.8696 10.4687 22.3267 8.28125 23.2407 6.4375C24.1548 4.59375 25.4087 3.17188 27.0024 2.17187C28.5962 1.17187 30.4165 0.671874 32.4634 0.671874C34.5103 0.671874 36.3306 1.17187 37.9243 2.17187C39.5181 3.17188 40.772 4.59375 41.686 6.4375C42.6001 8.28125 43.0571 10.4687 43.0571 13ZM40.2446 13C40.2446 10.9219 39.897 9.16797 39.2017 7.73828C38.5142 6.30859 37.5806 5.22656 36.4009 4.49219C35.229 3.75781 33.9165 3.39062 32.4634 3.39062C31.0103 3.39062 29.6938 3.75781 28.5142 4.49219C27.3423 5.22656 26.4087 6.30859 25.7134 7.73828C25.0259 9.16797 24.6821 10.9219 24.6821 13C24.6821 15.0781 25.0259 16.832 25.7134 18.2617C26.4087 19.6914 27.3423 20.7734 28.5142 21.5078C29.6938 22.2422 31.0103 22.6094 32.4634 22.6094C33.9165 22.6094 35.229 22.2422 36.4009 21.5078C37.5806 20.7734 38.5142 19.6914 39.2017 18.2617C39.897 16.832 40.2446 15.0781 40.2446 13ZM67.2563 8.5H64.3501C64.1782 7.66406 63.8774 6.92969 63.4478 6.29687C63.0259 5.66406 62.5103 5.13281 61.9009 4.70313C61.2993 4.26562 60.6313 3.9375 59.897 3.71875C59.1626 3.5 58.397 3.39062 57.6001 3.39062C56.147 3.39062 54.8306 3.75781 53.6509 4.49219C52.479 5.22656 51.5454 6.30859 50.8501 7.73828C50.1626 9.16797 49.8188 10.9219 49.8188 13C49.8188 15.0781 50.1626 16.832 50.8501 18.2617C51.5454 19.6914 52.479 20.7734 53.6509 21.5078C54.8306 22.2422 56.147 22.6094 57.6001 22.6094C58.397 22.6094 59.1626 22.5 59.897 22.2812C60.6313 22.0625 61.2993 21.7383 61.9009 21.3086C62.5103 20.8711 63.0259 20.3359 63.4478 19.7031C63.8774 19.0625 64.1782 18.3281 64.3501 17.5H67.2563C67.0376 18.7266 66.6392 19.8242 66.061 20.793C65.4829 21.7617 64.7642 22.5859 63.9048 23.2656C63.0454 23.9375 62.0806 24.4492 61.0103 24.8008C59.9478 25.1523 58.811 25.3281 57.6001 25.3281C55.5532 25.3281 53.7329 24.8281 52.1392 23.8281C50.5454 22.8281 49.2915 21.4062 48.3774 19.5625C47.4634 17.7187 47.0063 15.5312 47.0063 13C47.0063 10.4687 47.4634 8.28125 48.3774 6.4375C49.2915 4.59375 50.5454 3.17188 52.1392 2.17187C53.7329 1.17187 55.5532 0.671874 57.6001 0.671874C58.811 0.671874 59.9478 0.847655 61.0103 1.19922C62.0806 1.55078 63.0454 2.06641 63.9048 2.74609C64.7642 3.41797 65.4829 4.23828 66.061 5.20703C66.6392 6.16797 67.0376 7.26562 67.2563 8.5ZM20.7212 38.5H17.8149C17.6431 37.6641 17.3423 36.9297 16.9126 36.2969C16.4907 35.6641 15.9751 35.1328 15.3657 34.7031C14.7642 34.2656 14.0962 33.9375 13.3618 33.7187C12.6274 33.5 11.8618 33.3906 11.0649 33.3906C9.61182 33.3906 8.29541 33.7578 7.11572 34.4922C5.94385 35.2266 5.01025 36.3086 4.31494 37.7383C3.62744 39.168 3.28369 40.9219 3.28369 43C3.28369 45.0781 3.62744 46.832 4.31494 48.2617C5.01025 49.6914 5.94385 50.7734 7.11572 51.5078C8.29541 52.2422 9.61182 52.6094 11.0649 52.6094C11.8618 52.6094 12.6274 52.5 13.3618 52.2812C14.0962 52.0625 14.7642 51.7383 15.3657 51.3086C15.9751 50.8711 16.4907 50.3359 16.9126 49.7031C17.3423 49.0625 17.6431 48.3281 17.8149 47.5H20.7212C20.5024 48.7266 20.104 49.8242 19.5259 50.793C18.9478 51.7617 18.229 52.5859 17.3696 53.2656C16.5103 53.9375 15.5454 54.4492 14.4751 54.8008C13.4126 55.1523 12.2759 55.3281 11.0649 55.3281C9.01807 55.3281 7.19775 54.8281 5.604 53.8281C4.01025 52.8281 2.75635 51.4062 1.84229 49.5625C0.928223 47.7187 0.471191 45.5312 0.471191 43C0.471191 40.4687 0.928223 38.2812 1.84229 36.4375C2.75635 34.5938 4.01025 33.1719 5.604 32.1719C7.19775 31.1719 9.01807 30.6719 11.0649 30.6719C12.2759 30.6719 13.4126 30.8477 14.4751 31.1992C15.5454 31.5508 16.5103 32.0664 17.3696 32.7461C18.229 33.418 18.9478 34.2383 19.5259 35.207C20.104 36.168 20.5024 37.2656 20.7212 38.5ZM25.4175 31H28.2769V49.8906H28.5112L41.6362 31H44.4487V55H41.5425V36.1562H41.3081L28.23 55H25.4175V31ZM66.5767 55H63.6704V33.5781H58.561C57.2642 33.5781 56.2212 33.7773 55.4321 34.1758C54.6431 34.5664 54.0688 35.1211 53.7095 35.8398C53.3501 36.5586 53.1704 37.3984 53.1704 38.3594C53.1704 39.3203 53.3462 40.1484 53.6978 40.8437C54.0571 41.5312 54.6274 42.0625 55.4087 42.4375C56.1978 42.8125 57.2329 43 58.5142 43H64.9829V45.625H58.4204C56.561 45.625 55.0337 45.3164 53.8384 44.6992C52.6431 44.0742 51.7563 43.2148 51.1782 42.1211C50.6001 41.0273 50.311 39.7734 50.311 38.3594C50.311 36.9453 50.6001 35.6836 51.1782 34.5742C51.7563 33.4648 52.647 32.5937 53.8501 31.9609C55.0532 31.3203 56.5923 31 58.4673 31H66.5767V55ZM55.2798 44.2187H58.561L52.7485 55H49.3735L55.2798 44.2187Z" fill="white"/>
</svg>
